<svg xmlns="http://www.w3.org/2000/svg" viewBox="0 0 200 60" width="200" height="60">
  <defs>
    <linearGradient id="logoGradient" x1="0%" y1="0%" x2="100%" y2="0%">
      <stop offset="0%" style="stop-color:#2563eb;stop-opacity:1" />
      <stop offset="100%" style="stop-color:#1d4ed8;stop-opacity:1" />
    </linearGradient>
  </defs>
  
  <!-- Icon background -->
  <rect x="5" y="10" width="40" height="40" rx="8" fill="url(#logoGradient)"/>
  
  <!-- Newspaper icon -->
  <g fill="white">
    <!-- Main newspaper -->
    <rect x="12" y="18" width="26" height="24" rx="2" fill="white"/>
    
    <!-- Header -->
    <rect x="15" y="21" width="20" height="3" fill="#2563eb"/>
    <rect x="15" y="25" width="14" height="1.5" fill="#64748b"/>
    
    <!-- Content columns -->
    <rect x="15" y="29" width="8" height="1" fill="#94a3b8"/>
    <rect x="15" y="31" width="8" height="1" fill="#94a3b8"/>
    <rect x="15" y="33" width="6" height="1" fill="#94a3b8"/>
    <rect x="15" y="35" width="8" height="1" fill="#94a3b8"/>
    
    <rect x="26" y="29" width="7" height="1" fill="#94a3b8"/>
    <rect x="26" y="31" width="7" height="1" fill="#94a3b8"/>
    <rect x="26" y="33" width="5" height="1" fill="#94a3b8"/>
    <rect x="26" y="35" width="7" height="1" fill="#94a3b8"/>
  </g>
  
  <!-- Text -->
  <text x="55" y="25" font-family="Arial, sans-serif" font-size="16" font-weight="bold" fill="#1f2937">Portal de</text>
  <text x="55" y="42" font-family="Arial, sans-serif" font-size="16" font-weight="bold" fill="#2563eb">Notícias</text>
</svg>